<svg width="50" height="49" viewBox="0 0 50 49" fill="none" xmlns="http://www.w3.org/2000/svg">
<path fill-rule="evenodd" clip-rule="evenodd" d="M25.8033 0.972837C30.5124 0.759676 34.6414 3.77672 38.6177 6.53353C42.8604 9.47498 48.0124 12.1283 49.4613 17.375C50.9039 22.5995 47.9813 27.9039 45.8874 32.8599C44.0298 37.2568 41.7504 41.4301 38.1196 44.2195C34.5255 46.9807 30.1681 48.8749 25.8033 48.2899C21.6709 47.736 19.1968 43.2923 15.5079 41.1889C10.841 38.5279 4.06795 39.3413 1.41454 34.3838C-1.24247 29.4195 0.537991 22.7792 2.90621 17.6443C5.08318 12.9241 9.7085 10.5948 13.7398 7.65966C17.585 4.85992 21.1824 1.182 25.8033 0.972837Z" fill="#0088FF"/>
</svg>
