<svg width="52" height="49" viewBox="0 0 52 49" fill="none" xmlns="http://www.w3.org/2000/svg">
<path fill-rule="evenodd" clip-rule="evenodd" d="M26.8033 0.972837C31.5124 0.759676 35.6414 3.77672 39.6177 6.53353C43.8604 9.47498 49.0124 12.1283 50.4613 17.375C51.9039 22.5995 48.9813 27.9039 46.8874 32.8599C45.0298 37.2568 42.7504 41.4301 39.1196 44.2195C35.5255 46.9807 31.1681 48.8749 26.8033 48.2899C22.6709 47.736 20.1968 43.2923 16.5079 41.1889C11.841 38.5279 5.06795 39.3413 2.41454 34.3838C-0.242472 29.4195 1.53799 22.7792 3.90621 17.6443C6.08318 12.9241 10.7085 10.5948 14.7398 7.65966C18.585 4.85992 22.1824 1.182 26.8033 0.972837Z" fill="white" stroke="#608AF5"/>
</svg>
